<?xml version="1.0" standalone="no"?>
<!DOCTYPE svg PUBLIC "-//W3C//DTD SVG 20010904//EN"
 "http://www.w3.org/TR/2001/REC-SVG-20010904/DTD/svg10.dtd">
<svg version="1.0" xmlns="http://www.w3.org/2000/svg"
 width="192.000000pt" height="192.000000pt" viewBox="0 0 192.000000 192.000000"
 preserveAspectRatio="xMidYMid meet">
<metadata>
Created by potrace 1.14, written by Peter Selinger 2001-2017
</metadata>
<g transform="translate(0.000000,192.000000) scale(0.100000,-0.100000)"
fill="#000000" stroke="none">
<path d="M0 960 l0 -960 960 0 960 0 0 960 0 960 -960 0 -960 0 0 -960z m1338
494 l22 -15 0 -435 c0 -408 -1 -437 -19 -472 -68 -133 -276 -82 -276 67 0 26
6 60 14 75 30 55 112 83 184 63 l27 -7 0 260 0 260 -285 0 -284 0 -3 -349 c-3
-335 -4 -351 -24 -377 -37 -50 -70 -68 -124 -68 -78 0 -138 56 -147 135 -10
104 89 177 200 146 l27 -7 0 354 0 355 22 15 c19 14 68 16 333 16 265 0 314
-2 333 -16z"/>
</g>
</svg>
